<svg xmlns="http://www.w3.org/2000/svg" viewBox="0 0 33.277 33.277"><path d="M11.246 18.75c1.122 3.728 1.396 7.667 1.222 11.541-.023.472.621.173.636-.171.178-3.924-.089-7.926-1.226-11.703-.125-.414-.728.011-.632.333zm10.21 3.364c.277.991.081 2.011.14 3.023.078 1.353.907 2.392 1.919 3.219.062-.197.128-.393.193-.589-.926.402-2.413 1.068-2.334 2.307.069 1.067.883 1.831.692 2.968-.079.459.579.161.636-.17.146-.849-.134-1.577-.472-2.34-.137-.31-.284-.652-.181-.991.186-.607 1.258-.96 1.763-1.181.181-.079.393-.427.192-.589-1.039-.852-1.749-1.833-1.789-3.207-.027-.941.132-1.858-.129-2.782-.115-.416-.719.009-.63.332zm.233-18.677c-4.065 0-7.364 4.191-7.364 9.362 0 5.169 5.493 9.736 7.364 9.736 1.874 0 7.365-4.566 7.365-9.736 0-5.171-3.297-9.362-7.365-9.362zm1.941 2.841l1.358-.612c4.159 4.383 1.037 7.747 1.037 7.747 1.428-4.078-2.395-7.135-2.395-7.135zM12.336 18.583h-.995s-.169.938-.611 1.223c-.441.286 1.261-.665 1.956-.026-.121-.106-.548-.537-.35-1.197zm.35 1.197c.02.018.032.026.032.026-.011-.009-.023-.016-.032-.026zm9.92 2.116h-.994s-.17.937-.61 1.223c-.443.286 1.26-.665 1.954-.025-.121-.109-.547-.539-.35-1.198zm.349 1.197l.033.025c-.01-.009-.021-.016-.033-.025zM17.626 4.006C16.294 1.585 14.088 0 11.587 0 7.52 0 4.223 4.191 4.223 9.361s5.492 9.736 7.364 9.736c.73 0 2.012-.697 3.304-1.853-.869-1.433-1.472-3.073-1.472-4.78 0-3.733 1.72-6.955 4.207-8.458zm-9.009.814a10.045 10.045 0 0 0-1.276 1.666 7.516 7.516 0 0 0-.929 2.219 5.286 5.286 0 0 0-.002 2.416c.189.804.588 1.57 1.114 2.245-.621-.588-1.149-1.302-1.482-2.126a5.86 5.86 0 0 1-.396-2.646c.065-.906.309-1.794.657-2.629a10.958 10.958 0 0 1 .956-1.805c.064-.097.127-.191.194-.287.07-.097.133-.186.219-.293l1.142 1.046a2.953 2.953 0 0 0-.197.194z" fill="#010002"/></svg>